<?xml version="1.0" encoding="utf-8"?>
<!-- Generator: Adobe Illustrator 22.0.1, SVG Export Plug-In . SVG Version: 6.00 Build 0)  -->
<svg version="1.1" id="Слой_1" xmlns="http://www.w3.org/2000/svg" xmlns:xlink="http://www.w3.org/1999/xlink" x="0px" y="0px"
	 viewBox="0 0 385.7 247.4" style="enable-background:new 0 0 385.7 247.4;" xml:space="preserve">
<style type="text/css">
	.st0{fill:#9FCC67;}
	.st1{fill:#82BF7F;}
	.st2{fill:#7CC09C;}
	.st3{fill:#C4E55A;}
	.st4{fill:#8DA929;}
	.st5{fill:#7A921D;}
	.st6{fill:#617723;}
	.st7{fill:#62B5B5;}
	.st8{fill:#47BABB;}
	.st9{fill:#81B97D;}
	.st10{fill:#9ACC78;}
	.st11{fill:#5DABA7;}
	.st12{fill:#4CA7BC;}
	.st13{fill:#3D869B;}
	.st14{fill:#499CB3;}
	.st15{fill:#2A5C6E;}
	.st16{fill:#BDD371;}
	.st17{fill:#E6FF95;}
	.st18{fill:#D5ED80;}
	.st19{fill:#BFE5B4;}
	.st20{fill:#86D2CC;}
	.st21{fill:#65B0AA;}
	.st22{fill:#3FAFCB;}
	.st23{fill:#9FC34D;}
	.st24{fill:#709748;}
	.st25{fill:#68874C;}
	.st26{fill:#46867F;}
	.st27{fill:#2C7D94;}
	.st28{fill:#32778B;}
	.st29{fill:#0C6C89;}
	.st30{fill:#51A6B3;}
	.st31{fill:#FFFFFF;}
	.st32{enable-background:new    ;}
	.st33{fill:#010C12;}
</style>
<g id="Background_xA0_Image_1_">
</g>
<g id="Group_1_1_">
	<g id="Shape_11">
		<g>
			<polygon class="st0" points="220.1,6 237.9,19.3 248.8,14.2 			"/>
		</g>
	</g>
	<g id="Shape_12">
		<g>
			<polygon class="st1" points="221.6,6 215.2,7.4 241.3,21.1 			"/>
		</g>
	</g>
	<g id="Shape_13">
		<g>
			<polygon class="st2" points="215,6.5 204.5,20.7 240.5,19.6 			"/>
		</g>
	</g>
	<g id="Shape_25">
		<g>
			<polygon class="st3" points="300.5,55.9 281.1,35.7 296.4,58.1 314.8,88.4 			"/>
		</g>
	</g>
	<g id="Shape_26">
		<g>
			<polygon class="st4" points="301.6,57.3 279.1,58.4 303.1,89.6 315.1,89 			"/>
		</g>
	</g>
	<g id="Shape_29">
		<g>
			<polygon class="st4" points="255.9,65 282,94.8 282.1,60.3 			"/>
		</g>
	</g>
	<g id="Shape_27">
		<g>
			<polygon class="st5" points="315.1,87.5 302.6,88.1 315.1,119.1 			"/>
		</g>
	</g>
	<g id="Shape_28">
		<g>
			<polygon class="st6" points="280.9,58.8 280.8,94.7 303.2,88.4 			"/>
		</g>
	</g>
	<g id="Shape_14">
		<g>
			<polygon class="st7" points="178.7,11.3 205.8,20.8 216.4,6.6 			"/>
		</g>
	</g>
	<g id="Shape_37">
		<g>
			<polygon class="st8" points="190,6 212.6,9 221.6,6 			"/>
		</g>
	</g>
	<g id="Shape_19">
		<g>
			<polygon class="st9" points="206,19.5 228.1,38.8 237.9,19.3 			"/>
		</g>
	</g>
	<g id="Shape_20">
		<g>
			<polygon class="st10" points="238.1,18.1 226.8,38.6 257.4,40.7 			"/>
		</g>
	</g>
	<g id="Shape_21">
		<g>
			<polygon class="st11" points="206.1,18.2 193.8,47.6 229.3,38.9 			"/>
		</g>
	</g>
	<g id="Shape_16">
		<g>
			<polygon class="st12" points="161.3,12.1 184,11.8 188.5,6 			"/>
		</g>
	</g>
	<g id="Shape_17">
		<g>
			<polygon class="st13" points="161.3,12.1 143.2,25.6 167.4,30.2 179.4,10.6 			"/>
		</g>
	</g>
	<g id="Shape_18">
		<g>
			<polygon class="st14" points="177.5,9.8 166.2,30.3 195,47.8 207.3,18.4 			"/>
		</g>
	</g>
	<g id="Shape_22">
		<g>
			<polygon class="st15" points="143.8,24 140.2,45.2 167.4,28.6 			"/>
		</g>
	</g>
	<g id="Shape_23">
		<g>
			<polygon class="st15" points="165.9,27.1 161.5,56.4 193.9,46.3 			"/>
		</g>
	</g>
	<g id="Shape_24">
		<g>
			<polygon class="st3" points="277.4,31.7 247.6,14 237.9,19.3 257.2,42.1 282,61.5 298.5,57.3 			"/>
		</g>
	</g>
	<g id="Shape_38">
		<g>
			<polygon class="st16" points="307.6,54.3 301.6,57.3 315.1,89 			"/>
		</g>
	</g>
	<g id="Shape_39">
		<g>
			<polygon class="st17" points="285,25.6 247.3,13.6 301.6,57.3 			"/>
		</g>
	</g>
	<g id="Shape_40">
		<g>
			<polygon class="st18" points="285,27.1 301.6,60.3 307.6,54.3 			"/>
		</g>
	</g>
	<g id="Shape_41">
		<g>
			<polygon class="st19" points="251.8,6 221.6,6 247.3,16.6 283.5,25.6 			"/>
		</g>
	</g>
	<g id="Shape_42">
		<g>
			<polygon class="st20" points="224.7,0 185.5,7.5 250.3,6 			"/>
		</g>
	</g>
	<g id="Shape_43">
		<g>
			<polygon class="st21" points="203.6,0 191.5,1.5 185.5,9 229.2,1.5 			"/>
		</g>
	</g>
	<g id="Shape_44">
		<g>
			<polygon class="st22" points="176.4,4.5 164.4,12.1 182.4,12.1 193,1.5 			"/>
		</g>
	</g>
	<g id="Shape_30">
		<g>
			<polygon class="st23" points="257.4,40.7 255.7,66.2 283.2,61.7 			"/>
		</g>
	</g>
	<g id="Shape_31">
		<g>
			<polygon class="st24" points="257.5,40.7 226.3,37.2 258.1,67.7 			"/>
		</g>
	</g>
	<g id="Shape_32">
		<g>
			<polygon class="st25" points="227.7,36.2 220.1,69.4 258.3,66.5 			"/>
		</g>
	</g>
	<g id="Shape_33">
		<g>
			<polygon class="st26" points="192.5,46.1 222,70 228.3,37.4 			"/>
		</g>
	</g>
	<g id="Shape_34">
		<g>
			<polygon class="st27" points="140.2,43.7 164.4,57.3 167.4,27.1 			"/>
		</g>
	</g>
	<g id="Shape_35">
		<g>
			<polygon class="st28" points="119.1,57.3 141.3,45.4 145.1,24.1 			"/>
		</g>
	</g>
	<g id="Shape_36">
		<g>
			<polygon class="st29" points="138.7,27.1 123.6,51.3 161.3,13.6 			"/>
		</g>
	</g>
	<g id="Shape_15">
		<g>
			<polygon class="st30" points="188.5,6 179.4,12.1 215.6,9 			"/>
		</g>
	</g>
</g>
<g id="имени_Э._К._Первышина">
	<g>
		<path class="st31" d="M1.5,90l6.6-8.9h1.2v11H8v-8.7l-6.5,8.7H0.2v-11h1.4V90z"/>
		<path class="st31" d="M18.1,88.4l4.1-7.4h1.4v11h-1.4v-8.4l-3.8,6.6h-0.9l-3.8-6.6V92h-1.4V81h1.5L18.1,88.4z"/>
		<path class="st31" d="M31.5,92.1c-0.8,0-1.5-0.2-2.3-0.5c-0.6-0.3-1.2-0.8-1.8-1.2c-0.5-0.6-0.9-1.2-1.2-1.8
			c-0.3-0.8-0.5-1.4-0.5-2.3c0-0.8,0.2-1.5,0.5-2.1c0.3-0.8,0.6-1.2,1.2-1.8c0.5-0.5,1.1-0.9,1.8-1.2c0.6-0.3,1.4-0.5,2.3-0.5
			c0.8,0,1.5,0.2,2.3,0.5c0.6,0.3,1.2,0.8,1.7,1.2c0.5,0.5,0.9,1.1,1.1,1.8c0.3,0.6,0.5,1.4,0.5,2.1c0,0.2,0,0.2,0,0.3s0,0.2,0,0.3
			h-9.3c0,0.6,0.2,1.2,0.5,1.7c0.3,0.5,0.6,0.9,0.9,1.4c0.3,0.3,0.8,0.6,1.2,0.9c0.5,0.2,0.9,0.3,1.5,0.3c0.3,0,0.8,0,1.1-0.2
			c0.3-0.2,0.6-0.3,0.9-0.5c0.3-0.2,0.6-0.3,0.8-0.6c0.3-0.3,0.5-0.5,0.6-0.8l1.2,0.3c-0.2,0.5-0.5,0.8-0.8,1.1
			c-0.3,0.3-0.6,0.6-1.1,0.9c-0.5,0.3-0.9,0.5-1.4,0.6C32.6,92.1,32,92.1,31.5,92.1z M35.6,85.9c0-0.6-0.2-1.1-0.5-1.7
			c-0.3-0.5-0.5-0.9-0.9-1.2c-0.3-0.3-0.8-0.6-1.2-0.8c-0.5-0.2-0.9-0.3-1.5-0.3s-1.1,0.2-1.5,0.3c-0.5,0.2-0.9,0.5-1.2,0.8
			c-0.3,0.3-0.6,0.8-0.9,1.2c-0.2,0.5-0.3,1.1-0.5,1.7H35.6z"/>
		<path class="st31" d="M40.6,85.8h6.2v-4.7h1.4v11h-1.4v-5h-6.2v5h-1.4v-11h1.4V85.8z"/>
		<path class="st31" d="M52.8,90l6.6-8.9h1.2v11h-1.4v-8.7l-6.5,8.7h-1.5v-11h1.4V90H52.8z"/>
		<path class="st31" d="M74.2,92.1c-0.6,0-1.4-0.2-2-0.3c-0.6-0.2-1.2-0.5-1.7-0.6c-0.6-0.3-1.1-0.6-1.4-1.1
			c-0.5-0.5-0.8-0.9-1.1-1.5l1.2-0.6c0.3,0.5,0.6,0.9,0.9,1.2c0.3,0.3,0.8,0.6,1.2,0.9c0.5,0.3,0.9,0.5,1.4,0.5
			c0.5,0.2,0.9,0.2,1.4,0.2c0.8,0,1.5-0.2,2.3-0.5c0.6-0.3,1.2-0.8,1.8-1.2c0.5-0.6,0.9-1.2,1.2-1.8c0.3-0.8,0.5-1.5,0.6-2.3h-7.7
			v-1.2h7.7c0-0.8-0.3-1.4-0.5-2c-0.3-0.6-0.6-1.2-1.1-1.8c-0.5-0.5-1.1-0.9-1.7-1.2c-0.6-0.3-1.5-0.5-2.3-0.5c-0.5,0-0.9,0-1.4,0.2
			c-0.5,0.2-0.9,0.3-1.2,0.5c-0.5,0.2-0.8,0.5-1.2,0.8c-0.3,0.3-0.6,0.8-0.9,1.2l-1.2-0.8c0.5-0.9,1.2-1.8,2.1-2.4
			c0.9-0.6,2.1-0.9,3.6-0.9c1.2,0,2.3,0.2,3.2,0.6c0.9,0.5,1.7,1.1,2.3,1.7c0.6,0.8,1.1,1.5,1.4,2.4c0.3,0.9,0.5,1.8,0.5,2.7
			c0,0.9-0.2,2-0.5,2.9c-0.3,0.9-0.8,1.8-1.5,2.4c-0.6,0.8-1.4,1.4-2.3,1.8C76.3,91.8,75.2,92.1,74.2,92.1z"/>
		<path class="st31" d="M83.2,92v-2.1h1.2V92H83.2z"/>
		<path class="st31" d="M94.5,83.7h2.3l4.8-6.6h1.7L98,84.3l5.9,7.8h-1.7L97,85h-2.4v7.1H93V77.2h1.5L94.5,83.7L94.5,83.7z"/>
		<path class="st31" d="M105.4,92v-2.1h1.2V92H105.4z"/>
		<path class="st31" d="M115.2,77h11.6V92h-1.5V78.3h-8.6V92h-1.5V77z"/>
		<path class="st31" d="M134.9,92.1c-0.8,0-1.5-0.2-2.3-0.5c-0.6-0.3-1.2-0.8-1.8-1.2c-0.5-0.6-0.9-1.2-1.2-1.8
			c-0.3-0.8-0.5-1.4-0.5-2.3c0-0.8,0.2-1.5,0.5-2.1c0.3-0.8,0.6-1.2,1.2-1.8c0.5-0.5,1.1-0.9,1.8-1.2c0.6-0.3,1.4-0.5,2.3-0.5
			c0.8,0,1.5,0.2,2.3,0.5c0.6,0.3,1.2,0.8,1.7,1.2c0.5,0.5,0.9,1.1,1.1,1.8c0.3,0.6,0.5,1.4,0.5,2.1c0,0.2,0,0.2,0,0.3s0,0.2,0,0.3
			H131c0,0.6,0.2,1.2,0.5,1.7c0.3,0.5,0.6,0.9,0.9,1.4c0.3,0.3,0.8,0.6,1.2,0.9c0.5,0.2,0.9,0.3,1.5,0.3c0.3,0,0.8,0,1.1-0.2
			c0.3-0.2,0.6-0.3,0.9-0.5c0.3-0.2,0.6-0.3,0.8-0.6c0.3-0.3,0.5-0.5,0.6-0.8l1.2,0.3c-0.2,0.5-0.5,0.8-0.8,1.1
			c-0.3,0.3-0.6,0.6-1.1,0.9c-0.5,0.3-0.9,0.5-1.4,0.6C136,92.1,135.4,92.1,134.9,92.1z M139,85.9c0-0.6-0.2-1.1-0.5-1.7
			c-0.3-0.5-0.6-0.9-0.9-1.2c-0.3-0.3-0.8-0.6-1.2-0.8c-0.5-0.2-0.9-0.3-1.5-0.3c-0.6,0-1.1,0.2-1.5,0.3c-0.5,0.2-0.9,0.5-1.2,0.8
			s-0.6,0.8-0.9,1.2c-0.2,0.5-0.3,1.1-0.5,1.7H139z"/>
		<path class="st31" d="M148.2,92.1c-0.9,0-1.8-0.3-2.4-0.8c-0.8-0.5-1.4-1.1-1.7-1.8v6.8h-1.5V80.8h1.4v2.1
			c0.5-0.8,1.1-1.2,1.8-1.7c0.8-0.5,1.5-0.6,2.4-0.6c0.8,0,1.5,0.2,2.1,0.5c0.6,0.3,1.2,0.8,1.7,1.2c0.5,0.6,0.8,1.2,1.1,1.8
			c0.3,0.8,0.5,1.4,0.5,2.1s-0.2,1.5-0.3,2.3c-0.3,0.8-0.6,1.4-1.1,1.8c-0.5,0.5-0.9,0.9-1.5,1.2C149.6,92,149,92.1,148.2,92.1z
			 M147.8,90.9c0.6,0,1.1-0.2,1.7-0.5c0.5-0.3,0.9-0.6,1.2-1.1c0.3-0.5,0.6-0.9,0.8-1.4c0.2-0.5,0.3-1.1,0.3-1.7s-0.2-1.2-0.3-1.7
			c-0.2-0.6-0.5-1.1-0.9-1.4c-0.3-0.5-0.8-0.8-1.4-0.9c-0.5-0.3-1.1-0.3-1.7-0.3c-0.3,0-0.8,0-1.2,0.2c-0.5,0.2-0.8,0.3-1.1,0.6
			c-0.3,0.3-0.6,0.6-0.9,0.9c-0.3,0.3-0.5,0.8-0.5,1.1v3.3c0.2,0.5,0.5,0.8,0.6,1.1c0.3,0.3,0.6,0.6,0.9,0.9
			c0.3,0.3,0.8,0.5,1.1,0.6C147,90.9,147.3,90.9,147.8,90.9z"/>
		<path class="st31" d="M161,81c0.5,0,0.8,0,1.1,0.2s0.6,0.3,0.9,0.6c0.3,0.3,0.5,0.6,0.6,0.9c0.2,0.3,0.2,0.6,0.2,1.1
			c0,0.3,0,0.5-0.2,0.8c0,0.3-0.2,0.5-0.3,0.8c-0.2,0.3-0.3,0.5-0.5,0.6c-0.2,0.2-0.5,0.3-0.8,0.5c0.6,0.2,1.1,0.5,1.5,0.9
			c0.3,0.5,0.5,1.1,0.5,1.7c0,0.5-0.2,0.9-0.3,1.2c-0.2,0.3-0.5,0.8-0.6,0.9c-0.3,0.3-0.6,0.5-1.1,0.6c-0.5,0.2-0.8,0.2-1.4,0.2
			h-5.3v-11h5.6V81z M160.4,85.8c0.6,0,1.1-0.2,1.4-0.6c0.3-0.3,0.5-0.9,0.5-1.4s-0.2-0.9-0.5-1.4c-0.3-0.3-0.8-0.6-1.4-0.6h-3.6
			v3.8h3.6V85.8z M160.9,90.9c0.3,0,0.6,0,0.8-0.2c0.3-0.2,0.5-0.3,0.6-0.5c0.2-0.2,0.3-0.5,0.5-0.6c0.2-0.3,0.2-0.5,0.2-0.8
			c0-0.5-0.2-0.9-0.5-1.4c-0.3-0.5-0.8-0.6-1.4-0.6h-3.8v3.9L160.9,90.9L160.9,90.9z"/>
		<path class="st31" d="M166.6,81h1.4v3.9h2.4c0.5,0,1.1,0.2,1.5,0.3c0.5,0.2,0.9,0.5,1.2,0.6c0.3,0.3,0.6,0.6,0.8,1.1
			c0.2,0.5,0.3,0.9,0.3,1.5s-0.2,1.1-0.3,1.5c-0.2,0.5-0.5,0.8-0.8,1.1c-0.3,0.3-0.8,0.5-1.2,0.6c-0.5,0.2-0.9,0.3-1.5,0.3h-3.8V81z
			 M170.5,90.8c0.8,0,1.4-0.2,1.7-0.6c0.5-0.5,0.6-1.1,0.6-1.7c0-0.8-0.2-1.4-0.6-1.7c-0.5-0.5-0.9-0.6-1.7-0.6h-2.4v4.7h2.4V90.8z
			 M175.5,81h1.4v11h-1.4V81z"/>
		<path class="st31" d="M180.2,92V81h1.4v9.8h4.1V81h1.4v9.8h4.1V81h1.4v11H180.2z"/>
		<path class="st31" d="M197.4,90l6.6-8.9h1.2v11h-1.7v-8.7l-6.5,8.7h-1.4v-11h1.4V90H197.4z"/>
		<path class="st31" d="M209.7,85.8h6.2v-4.7h1.4v11h-1.4v-5h-6.2v5h-1.4v-11h1.4V85.8z"/>
		<path class="st31" d="M223.2,92.1c-0.5,0-1.1-0.2-1.5-0.3c-0.5-0.2-0.9-0.5-1.2-0.8c-0.3-0.3-0.6-0.6-0.8-1.1
			c-0.2-0.5-0.3-0.9-0.3-1.4s0.2-0.9,0.3-1.4c0.2-0.5,0.6-0.8,0.9-1.1c0.5-0.3,0.9-0.5,1.5-0.8c0.6-0.2,1.2-0.3,1.8-0.3
			c0.6,0,1.2,0,1.7,0.2c0.6,0.2,1.1,0.3,1.5,0.5v-1.1c0-0.9-0.3-1.8-0.8-2.3c-0.6-0.6-1.4-0.9-2.3-0.9c-0.6,0-1.2,0.2-1.7,0.3
			c-0.6,0.2-1.2,0.6-1.8,0.9l-0.5-0.9c1.4-0.9,2.9-1.5,4.1-1.5c1.4,0,2.4,0.5,3.3,1.2c0.8,0.8,1.2,1.8,1.2,3.2v5
			c0,0.5,0.2,0.6,0.5,0.6v1.2c-0.3,0-0.5,0-0.6,0c-0.3,0-0.6-0.2-0.9-0.3c-0.2-0.2-0.3-0.5-0.3-0.8v-0.9c-0.5,0.6-1.2,1.2-2,1.5
			C225,92,224.1,92.1,223.2,92.1z M223.6,91.1c0.8,0,1.5-0.2,2.1-0.5c0.6-0.3,1.1-0.6,1.4-1.1c0.2-0.2,0.2-0.3,0.3-0.5
			c0-0.2,0.2-0.3,0.2-0.5v-1.8c-0.5-0.2-0.9-0.3-1.5-0.5c-0.5-0.2-1.1-0.2-1.5-0.2c-1.1,0-1.8,0.2-2.4,0.6c-0.6,0.5-0.9,0.9-0.9,1.7
			c0,0.3,0,0.6,0.2,0.9c0.2,0.3,0.3,0.6,0.6,0.8c0.3,0.2,0.5,0.5,0.9,0.5C222.9,91.1,223.2,91.1,223.6,91.1z"/>
	</g>
</g>
<g id="МирТелеКом_copy_1_" class="st32">
	<g id="МирТелеКом_copy">
		<g>
			<path class="st33" d="M22.9,131.9L8,110.5H0.2L0,150.8h7.5v-27.1L20.2,141h5.6l11.9-17.3v27.1h7.5v-40.7h-7.5L22.9,131.9z
				 M60.3,138.7v-21.1h-7.5v33.2h6l18.1-22.6v22.6h7.5v-33.2h-7.5L60.3,138.7z M90.5,117.6v33.2H98v-10.6h16.9l5.7-6v-10.6l-6-6
				H90.5z M114.6,131.2l-3,3H98v-10.6h13.6l3,3V131.2z M123.6,117.6h15.1v33.2h7.5v-33.2h13.6v-7.5h-36.2V117.6z M164.4,150.8h27.1
				v-6h-19.6v-7.5H187v-6h-15.1v-7.5h19.6v-6h-27.1V150.8z M200.5,141.7l-3.6,3.2l-2.4-0.2v6l5.4-0.3l6.6-5.7l1.5-21.1h12.1v27.1
				h7.5v-33.2H202L200.5,141.7z M303.1,110.1h-9L282,126.7h-6v-16.6h-7.5v40.7h7.5v-16.6h7.5l12.1,16.6h9l-14.9-21.1L303.1,110.1z
				 M312.1,117.6l-6,6v21.1l6,6h22.6l6-6v-21.1l-6-6H312.1z M333.2,141.7l-3.8,3.2h-12.8l-3-3.2v-15.1l3-3h13.6l3,3V141.7z
				 M378.5,117.6l-12.8,17.5l-12.8-17.5h-7.5v33.2h7.5v-22.6l10.6,15.1h4.5l10.6-15.1v22.6h7.5v-33.2H378.5z M233.7,150.8h27.1v-6
				h-19.6v-7.5h15.1v-6h-15.1v-7.5h19.6v-6h-27.1V150.8z"/>
		</g>
	</g>
</g>
<g id="Rectangle_1_1_" class="st32">
	<g id="Rectangle_1">
		<g>
			<rect x="177.9" y="236.7" class="st31" width="72.4" height="10.6"/>
		</g>
	</g>
</g>
<g id="Ellipse_1_1_" class="st32">
	<g id="Ellipse_1">
		<g>
			<path class="st31" d="M214.1,214.1c-32.6,0-61.8-13.6-82.6-35.3l-4.7,3.9c22,23.1,52.9,37.4,87.3,37.4
				c42.7,0,80.2-22.3,101.6-55.8h-7.2C288,194.4,253.3,214.1,214.1,214.1z M300.1,14.9l-4.7,3.9C316,39.5,328.7,68,328.7,99.5
				c0,1.5,0,3-0.2,4.5h6c0-1.5,0.2-3,0.2-4.5C334.7,66.5,321.5,36.6,300.1,14.9z"/>
		</g>
	</g>
</g>
</svg>
