<?xml version="1.0" encoding="utf-8"?>
<!-- Generator: Adobe Illustrator 23.0.2, SVG Export Plug-In . SVG Version: 6.00 Build 0)  -->
<svg version="1.1" xmlns="http://www.w3.org/2000/svg" xmlns:xlink="http://www.w3.org/1999/xlink" x="0px" y="0px"
	 viewBox="0 0 144.94 165" style="enable-background:new 0 0 144.94 165;" xml:space="preserve">
<style type="text/css">
	.st0{fill:none;stroke:#FFFFFF;stroke-miterlimit:10;}
	.st1{enable-background:new    ;}
	.st2{fill:url(#SVGID_1_);}
	.st3{fill:url(#SVGID_2_);}
</style>
<g id="Background_xA0_Image_1_">
</g>
<g id="Group_1_1_">
	<g id="Shape_11">
		<g>
			<polygon class="st0" points="68.81,5 80.65,13.83 87.85,10.4 			"/>
		</g>
	</g>
	<g id="Shape_12">
		<g>
			<polygon class="st0" points="69.81,5 65.54,5.86 82.81,15 			"/>
		</g>
	</g>
	<g id="Shape_13">
		<g>
			<polygon class="st0" points="65.45,5.29 58.43,14.69 82.33,14.02 			"/>
		</g>
	</g>
	<g id="Shape_25">
		<g>
			<polygon class="st0" points="122.12,38.11 109.18,24.74 119.41,39.5 131.58,59.59 			"/>
		</g>
	</g>
	<g id="Shape_26">
		<g>
			<polygon class="st0" points="122.81,39 107.95,39.7 123.83,60.4 131.81,60 			"/>
		</g>
	</g>
	<g id="Shape_29">
		<g>
			<polygon class="st0" points="92.51,44.07 109.82,63.89 109.89,40.96 			"/>
		</g>
	</g>
	<g id="Shape_27">
		<g>
			<polygon class="st0" points="131.81,59 123.52,59.44 131.81,80 			"/>
		</g>
	</g>
	<g id="Shape_28">
		<g>
			<polygon class="st0" points="109.14,40.03 108.98,63.8 123.93,59.56 			"/>
		</g>
	</g>
	<g id="Shape_14">
		<g>
			<polygon class="st0" points="41.27,8.47 59.26,14.78 66.29,5.39 			"/>
		</g>
	</g>
	<g id="Shape_37">
		<g>
			<polygon class="st0" points="48.81,5 63.81,7 69.81,5 			"/>
		</g>
	</g>
	<g id="Shape_19">
		<g>
			<polygon class="st0" points="59.36,13.94 74.08,26.67 80.65,13.83 			"/>
		</g>
	</g>
	<g id="Shape_20">
		<g>
			<polygon class="st0" points="80.74,12.99 73.24,26.57 93.49,28.04 			"/>
		</g>
	</g>
	<g id="Shape_21">
		<g>
			<polygon class="st0" points="59.46,13.1 51.28,32.56 74.92,26.77 			"/>
		</g>
	</g>
	<g id="Shape_16">
		<g>
			<polygon class="st0" points="29.81,9 44.79,8.76 47.81,5 			"/>
		</g>
	</g>
	<g id="Shape_17">
		<g>
			<polygon class="st0" points="29.81,9 17.81,18 33.81,21 41.81,8 			"/>
		</g>
	</g>
	<g id="Shape_18">
		<g>
			<polygon class="st0" points="40.52,7.54 33.01,21.13 52.12,32.66 60.3,13.2 			"/>
		</g>
	</g>
	<g id="Shape_22">
		<g>
			<polygon class="st0" points="18.18,16.88 15.81,31 33.81,20 			"/>
		</g>
	</g>
	<g id="Shape_23">
		<g>
			<polygon class="st0" points="32.81,19 29.93,38.44 51.38,31.72 			"/>
		</g>
	</g>
	<g id="Shape_24">
		<g>
			<polygon class="st0" points="106.81,22 87.01,10.31 80.65,13.83 93.39,28.88 109.79,41.8 120.81,39 			"/>
		</g>
	</g>
	<g id="Shape_38">
		<g>
			<polygon class="st0" points="126.81,37 122.81,39 131.81,60 			"/>
		</g>
	</g>
	<g id="Shape_39">
		<g>
			<polygon class="st0" points="111.81,18 86.81,10 122.81,39 			"/>
		</g>
	</g>
	<g id="Shape_40">
		<g>
			<polygon class="st0" points="111.81,19 122.81,41 126.81,37 			"/>
		</g>
	</g>
	<g id="Shape_41">
		<g>
			<polygon class="st0" points="89.81,5 69.81,5 86.81,12 110.81,18 			"/>
		</g>
	</g>
	<g id="Shape_42">
		<g>
			<polygon class="st0" points="71.81,1 45.81,6 88.81,5 			"/>
		</g>
	</g>
	<g id="Shape_43">
		<g>
			<polygon class="st0" points="57.81,1 49.81,2 45.81,7 74.81,2 			"/>
		</g>
	</g>
	<g id="Shape_44">
		<g>
			<polygon class="st0" points="39.81,4 31.81,9 43.81,9 50.81,2 			"/>
		</g>
	</g>
	<g id="Shape_30">
		<g>
			<polygon class="st0" points="93.49,28.04 92.42,44.91 110.63,41.9 			"/>
		</g>
	</g>
	<g id="Shape_31">
		<g>
			<polygon class="st0" points="93.61,28.04 72.94,25.67 94,45.94 			"/>
		</g>
	</g>
	<g id="Shape_32">
		<g>
			<polygon class="st0" points="73.81,25 68.81,47 94.1,45.1 			"/>
		</g>
	</g>
	<g id="Shape_33">
		<g>
			<polygon class="st0" points="50.54,31.63 70,47.45 74.17,25.83 			"/>
		</g>
	</g>
	<g id="Shape_34">
		<g>
			<polygon class="st0" points="15.81,30 31.81,39 33.81,19 			"/>
		</g>
	</g>
	<g id="Shape_35">
		<g>
			<polygon class="st0" points="1.81,39 16.55,31.14 19.02,16.98 			"/>
		</g>
	</g>
	<g id="Shape_36">
		<g>
			<polygon class="st0" points="14.81,19 4.81,35 29.81,10 			"/>
		</g>
	</g>
	<g id="Shape_15">
		<g>
			<polygon class="st0" points="47.81,5 41.81,9 65.81,7 			"/>
		</g>
	</g>
</g>
<g id="имени_Э._К._Первышина">
</g>
<g id="МирТелеКом_copy_1_" class="st1">
</g>
<g id="Rectangle_1_1_" class="st1">
	<g id="Rectangle_1_2_">
		<g>
			
				<linearGradient id="SVGID_1_" gradientUnits="userSpaceOnUse" x1="314" y1="228.5" x2="266" y2="228.5" gradientTransform="matrix(1 0 0 1 -225.194 -67)">
				<stop  offset="0" style="stop-color:#FFFFFF"/>
				<stop  offset="1" style="stop-color:#FFFFFF;stop-opacity:0.3"/>
			</linearGradient>
			<rect x="40.81" y="158" class="st2" width="48" height="7"/>
		</g>
	</g>
</g>
<g id="Ellipse_1_1_" class="st1">
	<g id="Ellipse_1">
		<g>
			
				<linearGradient id="SVGID_2_" gradientUnits="userSpaceOnUse" x1="370" y1="145.9536" x2="232.0825" y2="145.9536" gradientTransform="matrix(1 0 0 1 -225.194 -67)">
				<stop  offset="0" style="stop-color:#FFFFFF"/>
				<stop  offset="1" style="stop-color:#FFFFFF;stop-opacity:0.3"/>
			</linearGradient>
			<path class="st3" d="M64.81,143c-21.55,0-41-8.98-54.83-23.4l-3.09,2.55C21.46,137.46,42.01,147,64.81,147
				c28.35,0,53.24-14.76,67.45-37h-4.79C113.76,129.93,90.82,143,64.81,143z M121.83,10.91l-3.09,2.55
				C132.38,27.2,140.81,46.11,140.81,67c0,1.01-0.04,2-0.08,3h4c0.04-1,0.08-1.99,0.08-3C144.81,45.14,136.03,25.35,121.83,10.91z"
				/>
		</g>
	</g>
</g>
</svg>
